<?xml version="1.0" encoding="UTF-8" standalone="no"?>
<!-- Generator: Adobe Illustrator 27.5.0, SVG Export Plug-In . SVG Version: 6.00 Build 0)  -->

<svg
   version="1.1"
   x="0px"
   y="0px"
   viewBox="0 0 1200 1200"
   style="enable-background:new 0 0 1200 1200;"
   xml:space="preserve"
   id="svg6426"
   sodipodi:docname="vhennusicon2.svg"
   inkscape:version="1.2.2 (b0a8486541, 2022-12-01)"
   xmlns:inkscape="http://www.inkscape.org/namespaces/inkscape"
   xmlns:sodipodi="http://sodipodi.sourceforge.net/DTD/sodipodi-0.dtd"
   xmlns="http://www.w3.org/2000/svg"
   xmlns:svg="http://www.w3.org/2000/svg"><defs
   id="defs6430" /><sodipodi:namedview
   id="namedview6428"
   pagecolor="#ffffff"
   bordercolor="#000000"
   borderopacity="0.25"
   inkscape:showpageshadow="2"
   inkscape:pageopacity="0.0"
   inkscape:pagecheckerboard="0"
   inkscape:deskcolor="#d1d1d1"
   showgrid="false"
   inkscape:zoom="0.32638714"
   inkscape:cx="526.98155"
   inkscape:cy="638.81193"
   inkscape:window-width="1302"
   inkscape:window-height="699"
   inkscape:window-x="0"
   inkscape:window-y="0"
   inkscape:window-maximized="1"
   inkscape:current-layer="svg6426" />
<g
   id="Background"
   sodipodi:insensitive="true">
	<rect
   style="fill:#af47d2;fill-opacity:1"
   width="1200"
   height="1200"
   id="rect5893"
   x="0"
   y="0" />
</g>

<g
   id="Graphic_Elements"
   transform="matrix(1.524459,0,0,1.3785707,-505.57879,-361.05745)"
   style="display:none;fill:#ffffff">
	<g
   id="g6423"
   style="fill:#ffffff">
		
		<g
   id="g6421"
   transform="translate(96.002,90.18)"
   style="fill:#ffffff">
			
			<g
   id="g6419"
   style="fill:#ffffff"
   transform="translate(29.357478,-89.84554)">
				<path
   style="fill:#ffffff"
   d="m 599.867,1052.853 c -3.108,0 -5.98,-1.658 -7.535,-4.35 L 207.45,381.866 c -1.553,-2.692 -1.553,-6.008 0,-8.7 1.555,-2.692 4.426,-4.35 7.535,-4.35 H 984.75 c 3.108,0 5.98,1.658 7.535,4.35 1.553,2.692 1.553,6.008 0,8.7 l -384.883,666.637 c -1.555,2.692 -4.427,4.35 -7.535,4.35 z M 230.053,386.216 599.867,1026.753 969.681,386.216 Z"
   id="path6417" />
			</g>
		</g>
	</g>
</g>
<g
   id="g9119"
   transform="matrix(11.892296,0,0,13.092682,-4887.7119,-4522.9647)">
					<path
   style="fill:none;stroke:#ffffff;stroke-width:4.7424;stroke-linecap:round;stroke-miterlimit:10"
   d="m 428.64,383.686 c 1.411,-2.822 3.206,-5.451 5.32,-7.793 0.731,-0.81 1.557,-1.62 2.615,-1.889 2.144,-0.546 4.2,1.394 4.935,3.481 0.735,2.087 0.643,4.381 1.246,6.509 0.604,2.129 2.327,4.264 4.536,4.127 1.462,-0.091 2.672,-1.149 3.637,-2.25 3.278,-3.738 5.219,-8.626 9.047,-11.798 1.904,-1.578 4.575,-2.668 6.837,-1.67 2.87,1.267 3.486,4.947 4.325,7.97 1.171,4.224 3.96,8.443 8.229,9.439 3.527,0.823 7.293,-0.813 9.811,-3.417 2.518,-2.604 3.977,-6.045 5.084,-9.494"
   id="path9115" />
					<path
   style="fill:none;stroke:#ffffff;stroke-width:4.7424;stroke-linecap:round;stroke-miterlimit:10"
   d="m 428.64,404.225 c 1.411,-2.822 3.206,-5.451 5.32,-7.793 0.731,-0.81 1.557,-1.619 2.615,-1.889 2.144,-0.546 4.2,1.394 4.935,3.481 0.735,2.087 0.643,4.38 1.246,6.509 0.604,2.129 2.327,4.264 4.536,4.127 1.462,-0.091 2.672,-1.149 3.637,-2.25 3.278,-3.738 5.219,-8.626 9.047,-11.798 1.904,-1.578 4.575,-2.668 6.837,-1.67 2.87,1.267 3.486,4.947 4.325,7.97 1.171,4.224 3.96,8.443 8.229,9.439 3.527,0.823 7.293,-0.813 9.811,-3.417 2.518,-2.604 3.977,-6.045 5.084,-9.494"
   id="path9117" />
				</g></svg>
